# MagicaVoxel @ Ephtracy

# group
g RiverBank_Right

# material
mtllib RiverBank_Right.mtl
usemtl palette

# normals
vn -1 0 0
vn 1 0 0
vn 0 0 1
vn 0 0 -1
vn 0 -1 0
vn 0 1 0

# texcoords
vt 0.857422 0.5
vt 0.861328 0.5
vt 0.865234 0.5
vt 0.892578 0.5

# verts
v -4 0 15.5
v -4 0 13.5
v -4 0 11.5
v -4 0 9.5
v -4 0 8.5
v -4 0 6.5
v -4 0 3.5
v -4 0 1.5
v -4 0 0.5
v -4 0 -3.5
v -4 0 -5.5
v -4 0 -8.5
v -4 0 -10.5
v -4 0 -15.5
v -4 1 15.5
v -4 1 13.5
v -4 1 12.5
v -4 1 11.5
v -4 1 9.5
v -4 1 8.5
v -4 1 6.5
v -4 1 3.5
v -4 1 2.5
v -4 1 1.5
v -4 1 0.5
v -4 1 -3.5
v -4 1 -5.5
v -4 1 -8.5
v -4 1 -10.5
v -4 1 -15.5
v -4 2 12.5
v -4 2 11.5
v -4 2 3.5
v -4 2 2.5
v -3 1 15.5
v -3 1 13.5
v -3 1 12.5
v -3 1 11.5
v -3 1 9.5
v -3 1 8.5
v -3 1 6.5
v -3 1 5.5
v -3 1 3.5
v -3 1 2.5
v -3 1 1.5
v -3 1 0.5
v -3 1 -3.5
v -3 1 -4.5
v -3 1 -5.5
v -3 1 -7.5
v -3 1 -8.5
v -3 1 -9.5
v -3 1 -10.5
v -3 1 -12.5
v -3 1 -14.5
v -3 1 -15.5
v -3 2 15.5
v -3 2 12.5
v -3 2 11.5
v -3 2 9.5
v -3 2 8.5
v -3 2 5.5
v -3 2 3.5
v -3 2 2.5
v -3 2 1.5
v -3 2 -4.5
v -3 2 -7.5
v -3 2 -9.5
v -3 2 -10.5
v -3 2 -12.5
v -3 2 -14.5
v -3 2 -15.5
v -3 3 3.5
v -3 3 1.5
v -2 2 10.5
v -2 2 9.5
v -2 2 8.5
v -2 2 7.5
v -2 2 1.5
v -2 2 0.5
v -2 2 -2.5
v -2 2 -4.5
v -2 2 -6.5
v -2 3 10.5
v -2 3 7.5
v -2 3 1.5
v -2 3 0.5
v -2 3 -2.5
v -2 3 -6.5
v -1 2 15.5
v -1 2 14.5
v -1 2 13.5
v -1 2 11.5
v -1 2 10.5
v -1 2 7.5
v -1 2 6.5
v -1 2 5.5
v -1 2 4.5
v -1 2 3.5
v -1 2 2.5
v -1 2 0.5
v -1 2 -2.5
v -1 2 -6.5
v -1 2 -7.5
v -1 2 -8.5
v -1 2 -11.5
v -1 2 -13.5
v -1 2 -14.5
v -1 3 15.5
v -1 3 14.5
v -1 3 11.5
v -1 3 10.5
v -1 3 7.5
v -1 3 6.5
v -1 3 5.5
v -1 3 4.5
v -1 3 3.5
v -1 3 2.5
v -1 3 0.5
v -1 3 -2.5
v -1 3 -6.5
v -1 3 -7.5
v -1 3 -11.5
v -1 3 -14.5
v -2 2 3.5
v -2 2 2.5
v -2 3 3.5
v -2 3 2.5
v 4 0 15.5
v 4 0 -15.5
v 4 2 15.5
v 4 2 -14.5
v 4 2 -15.5
v 4 3 15.5
v 4 3 -14.5
v -4 0 15.5
v -4 1 15.5
v -3 0 15.5
v -3 1 15.5
v -3 2 15.5
v -2 1 15.5
v -2 2 15.5
v -1 2 15.5
v -1 3 15.5
v 4 0 15.5
v 4 2 15.5
v 4 3 15.5
v -4 1 12.5
v -4 2 12.5
v -3 1 12.5
v -3 2 12.5
v -2 2 10.5
v -2 3 10.5
v -1 2 10.5
v -1 3 10.5
v -4 1 3.5
v -4 2 3.5
v -3 1 3.5
v -3 2 3.5
v -3 3 3.5
v -2 2 3.5
v -2 3 3.5
v -2 2 2.5
v -2 3 2.5
v -1 2 2.5
v -1 3 2.5
v -2 2 -2.5
v -2 3 -2.5
v -1 2 -2.5
v -1 3 -2.5
v -4 1 11.5
v -4 2 11.5
v -3 1 11.5
v -3 2 11.5
v -2 2 7.5
v -2 3 7.5
v -1 2 7.5
v -1 3 7.5
v -4 1 2.5
v -4 2 2.5
v -3 1 2.5
v -3 2 2.5
v -3 2 1.5
v -3 3 1.5
v -2 2 1.5
v -2 3 1.5
v -2 2 0.5
v -2 3 0.5
v -1 2 0.5
v -1 3 0.5
v -2 2 -6.5
v -2 3 -6.5
v -1 2 -6.5
v -1 3 -6.5
v -1 2 -14.5
v -1 3 -14.5
v 0 2 -14.5
v 0 3 -14.5
v 4 2 -14.5
v 4 3 -14.5
v -4 0 -15.5
v -4 1 -15.5
v -3 1 -15.5
v -3 2 -15.5
v 4 0 -15.5
v 4 2 -15.5
v -4 0 15.5
v -3 0 15.5
v 4 0 15.5
v -4 0 13.5
v -3 0 13.5
v -4 0 11.5
v -3 0 11.5
v -4 0 9.5
v -3 0 9.5
v -4 0 8.5
v -3 0 8.5
v -4 0 6.5
v -3 0 6.5
v -4 0 3.5
v -3 0 3.5
v -4 0 1.5
v -3 0 1.5
v -4 0 0.5
v -3 0 0.5
v -4 0 -3.5
v -3 0 -3.5
v -4 0 -5.5
v -3 0 -5.5
v -4 0 -8.5
v -3 0 -8.5
v -4 0 -10.5
v -3 0 -10.5
v -4 0 -15.5
v 4 0 -15.5
v -4 1 15.5
v -3 1 15.5
v -4 1 13.5
v -3 1 13.5
v -4 1 12.5
v -3 1 12.5
v -4 1 11.5
v -3 1 11.5
v -4 1 9.5
v -3 1 9.5
v -4 1 8.5
v -3 1 8.5
v -4 1 6.5
v -3 1 6.5
v -3 1 5.5
v -4 1 3.5
v -3 1 3.5
v -4 1 2.5
v -3 1 2.5
v -4 1 1.5
v -3 1 1.5
v -4 1 0.5
v -3 1 0.5
v -4 1 -3.5
v -3 1 -3.5
v -3 1 -4.5
v -4 1 -5.5
v -3 1 -5.5
v -3 1 -7.5
v -4 1 -8.5
v -3 1 -8.5
v -3 1 -9.5
v -4 1 -10.5
v -3 1 -10.5
v -3 1 -12.5
v -3 1 -14.5
v -4 1 -15.5
v -3 1 -15.5
v -3 2 15.5
v -2 2 15.5
v -1 2 15.5
v -1 2 14.5
v -2 2 13.5
v -1 2 13.5
v -4 2 12.5
v -3 2 12.5
v -4 2 11.5
v -3 2 11.5
v -2 2 11.5
v -1 2 11.5
v -2 2 10.5
v -1 2 10.5
v -3 2 9.5
v -2 2 9.5
v -3 2 8.5
v -2 2 8.5
v -2 2 7.5
v -1 2 7.5
v -2 2 6.5
v -1 2 6.5
v -3 2 5.5
v -2 2 5.5
v -1 2 5.5
v -1 2 4.5
v -4 2 3.5
v -3 2 3.5
v -2 2 3.5
v -1 2 3.5
v -4 2 2.5
v -3 2 2.5
v -2 2 2.5
v -1 2 2.5
v -3 2 1.5
v -2 2 1.5
v -2 2 0.5
v -1 2 0.5
v -2 2 -2.5
v -1 2 -2.5
v -3 2 -4.5
v -2 2 -4.5
v -2 2 -6.5
v -1 2 -6.5
v -3 2 -7.5
v -2 2 -7.5
v -1 2 -7.5
v -2 2 -8.5
v -1 2 -8.5
v -3 2 -9.5
v -2 2 -9.5
v -3 2 -10.5
v -2 2 -10.5
v -2 2 -11.5
v -1 2 -11.5
v -3 2 -12.5
v -2 2 -12.5
v -2 2 -13.5
v -1 2 -13.5
v -3 2 -14.5
v -2 2 -14.5
v -1 2 -14.5
v 0 2 -14.5
v 4 2 -14.5
v -3 2 -15.5
v 4 2 -15.5
v -1 3 15.5
v 4 3 15.5
v -1 3 14.5
v 0 3 14.5
v -1 3 11.5
v 0 3 11.5
v -2 3 10.5
v -1 3 10.5
v -2 3 7.5
v -1 3 7.5
v 0 3 7.5
v -1 3 6.5
v 0 3 6.5
v -1 3 5.5
v 0 3 5.5
v -1 3 4.5
v 0 3 4.5
v -3 3 3.5
v -2 3 3.5
v -1 3 3.5
v 0 3 3.5
v -2 3 2.5
v -1 3 2.5
v -3 3 1.5
v -2 3 1.5
v -2 3 0.5
v -1 3 0.5
v 0 3 0.5
v -2 3 -2.5
v -1 3 -2.5
v -1 3 -4.5
v 0 3 -4.5
v -2 3 -6.5
v -1 3 -6.5
v 0 3 -6.5
v -1 3 -7.5
v 0 3 -7.5
v -1 3 -11.5
v 0 3 -11.5
v -1 3 -14.5
v 0 3 -14.5
v 4 3 -14.5

# faces
f 15/2/1 2/2/1 1/2/1
f 16/3/1 3/3/1 2/3/1
f 16/2/1 2/2/1 15/2/1
f 17/3/1 3/3/1 16/3/1
f 18/2/1 4/2/1 3/2/1
f 18/3/1 3/3/1 17/3/1
f 19/1/1 5/1/1 4/1/1
f 19/2/1 4/2/1 18/2/1
f 20/3/1 6/3/1 5/3/1
f 20/1/1 5/1/1 19/1/1
f 21/1/1 7/1/1 6/1/1
f 21/3/1 6/3/1 20/3/1
f 22/2/1 8/2/1 7/2/1
f 22/1/1 7/1/1 21/1/1
f 23/2/1 8/2/1 22/2/1
f 24/1/1 9/1/1 8/1/1
f 24/2/1 8/2/1 23/2/1
f 25/2/1 10/2/1 9/2/1
f 25/1/1 9/1/1 24/1/1
f 26/1/1 11/1/1 10/1/1
f 26/2/1 10/2/1 25/2/1
f 27/3/1 12/3/1 11/3/1
f 27/1/1 11/1/1 26/1/1
f 28/2/1 13/2/1 12/2/1
f 28/3/1 12/3/1 27/3/1
f 29/3/1 14/3/1 13/3/1
f 29/2/1 13/2/1 28/2/1
f 30/3/1 14/3/1 29/3/1
f 31/4/1 18/4/1 17/4/1
f 32/4/1 18/4/1 31/4/1
f 33/4/1 23/4/1 22/4/1
f 34/4/1 23/4/1 33/4/1
f 57/2/1 36/2/1 35/2/1
f 57/2/1 37/2/1 36/2/1
f 58/2/1 37/2/1 57/2/1
f 59/4/1 39/4/1 38/4/1
f 60/2/1 40/2/1 39/2/1
f 60/4/1 39/4/1 59/4/1
f 61/1/1 41/1/1 40/1/1
f 61/2/1 40/2/1 60/2/1
f 61/1/1 42/1/1 41/1/1
f 62/3/1 43/3/1 42/3/1
f 62/1/1 42/1/1 61/1/1
f 63/3/1 43/3/1 62/3/1
f 64/1/1 45/1/1 44/1/1
f 64/1/1 46/1/1 45/1/1
f 64/1/1 47/1/1 46/1/1
f 64/1/1 48/1/1 47/1/1
f 65/1/1 48/1/1 64/1/1
f 66/3/1 49/3/1 48/3/1
f 66/1/1 48/1/1 65/1/1
f 66/3/1 50/3/1 49/3/1
f 67/2/1 51/2/1 50/2/1
f 67/3/1 50/3/1 66/3/1
f 67/2/1 52/2/1 51/2/1
f 68/3/1 53/3/1 52/3/1
f 68/2/1 52/2/1 67/2/1
f 69/2/1 54/2/1 53/2/1
f 69/3/1 53/3/1 68/3/1
f 70/1/1 55/1/1 54/1/1
f 70/2/1 54/2/1 69/2/1
f 71/3/1 56/3/1 55/3/1
f 71/1/1 55/1/1 70/1/1
f 72/3/1 56/3/1 71/3/1
f 73/4/1 64/4/1 63/4/1
f 73/4/1 65/4/1 64/4/1
f 74/4/1 65/4/1 73/4/1
f 84/4/1 76/4/1 75/4/1
f 84/4/1 77/4/1 76/4/1
f 84/4/1 78/4/1 77/4/1
f 85/4/1 78/4/1 84/4/1
f 86/4/1 80/4/1 79/4/1
f 87/4/1 80/4/1 86/4/1
f 88/4/1 83/4/1 82/4/1
f 88/4/1 82/4/1 81/4/1
f 89/4/1 83/4/1 88/4/1
f 109/4/1 91/4/1 90/4/1
f 110/1/1 92/1/1 91/1/1
f 110/4/1 91/4/1 109/4/1
f 110/1/1 93/1/1 92/1/1
f 111/3/1 94/3/1 93/3/1
f 111/1/1 93/1/1 110/1/1
f 112/3/1 94/3/1 111/3/1
f 113/1/1 96/1/1 95/1/1
f 114/3/1 97/3/1 96/3/1
f 114/1/1 96/1/1 113/1/1
f 115/2/1 98/2/1 97/2/1
f 115/3/1 97/3/1 114/3/1
f 116/4/1 99/4/1 98/4/1
f 116/2/1 98/2/1 115/2/1
f 117/3/1 100/3/1 99/3/1
f 117/4/1 99/4/1 116/4/1
f 118/3/1 100/3/1 117/3/1
f 119/4/1 102/4/1 101/4/1
f 120/4/1 102/4/1 119/4/1
f 121/3/1 104/3/1 103/3/1
f 122/1/1 105/1/1 104/1/1
f 122/3/1 104/3/1 121/3/1
f 122/1/1 106/1/1 105/1/1
f 123/2/1 108/2/1 107/2/1
f 123/1/1 106/1/1 122/1/1
f 123/2/1 107/2/1 106/2/1
f 124/2/1 108/2/1 123/2/1
f 125/4/2 126/4/2 127/4/2
f 127/4/2 126/4/2 128/4/2
f 129/3/2 130/3/2 131/3/2
f 131/3/2 130/3/2 132/3/2
f 132/3/2 130/3/2 133/3/2
f 131/4/2 132/4/2 134/4/2
f 134/4/2 132/4/2 135/4/2
f 138/2/3 137/2/3 136/2/3
f 139/2/3 137/2/3 138/2/3
f 141/3/3 139/3/3 138/3/3
f 141/2/3 140/2/3 139/2/3
f 142/2/3 140/2/3 141/2/3
f 143/3/3 142/3/3 141/3/3
f 145/3/3 141/3/3 138/3/3
f 145/3/3 143/3/3 141/3/3
f 146/4/3 144/4/3 143/4/3
f 146/3/3 143/3/3 145/3/3
f 147/4/3 144/4/3 146/4/3
f 150/4/3 149/4/3 148/4/3
f 151/4/3 149/4/3 150/4/3
f 154/4/3 153/4/3 152/4/3
f 155/4/3 153/4/3 154/4/3
f 158/4/3 157/4/3 156/4/3
f 159/4/3 157/4/3 158/4/3
f 161/4/3 160/4/3 159/4/3
f 162/4/3 160/4/3 161/4/3
f 165/4/3 164/4/3 163/4/3
f 166/4/3 164/4/3 165/4/3
f 169/4/3 168/4/3 167/4/3
f 170/4/3 168/4/3 169/4/3
f 171/4/4 172/4/4 173/4/4
f 173/4/4 172/4/4 174/4/4
f 175/4/4 176/4/4 177/4/4
f 177/4/4 176/4/4 178/4/4
f 179/4/4 180/4/4 181/4/4
f 181/4/4 180/4/4 182/4/4
f 183/4/4 184/4/4 185/4/4
f 185/4/4 184/4/4 186/4/4
f 187/4/4 188/4/4 189/4/4
f 189/4/4 188/4/4 190/4/4
f 191/4/4 192/4/4 193/4/4
f 193/4/4 192/4/4 194/4/4
f 195/2/4 196/2/4 197/2/4
f 197/2/4 196/2/4 198/2/4
f 197/4/4 198/4/4 199/4/4
f 199/4/4 198/4/4 200/4/4
f 201/3/4 202/3/4 203/3/4
f 201/3/4 203/3/4 205/3/4
f 203/3/4 204/3/4 205/3/4
f 205/3/4 204/3/4 206/3/4
f 210/2/5 208/2/5 207/2/5
f 211/3/5 209/3/5 208/3/5
f 211/2/5 208/2/5 210/2/5
f 212/3/5 211/3/5 210/3/5
f 213/3/5 209/3/5 211/3/5
f 213/3/5 211/3/5 212/3/5
f 214/2/5 213/2/5 212/2/5
f 215/3/5 209/3/5 213/3/5
f 215/2/5 213/2/5 214/2/5
f 216/1/5 215/1/5 214/1/5
f 217/3/5 209/3/5 215/3/5
f 217/1/5 215/1/5 216/1/5
f 218/3/5 217/3/5 216/3/5
f 219/3/5 209/3/5 217/3/5
f 219/3/5 217/3/5 218/3/5
f 220/1/5 219/1/5 218/1/5
f 221/3/5 209/3/5 219/3/5
f 221/1/5 219/1/5 220/1/5
f 222/2/5 221/2/5 220/2/5
f 223/3/5 209/3/5 221/3/5
f 223/2/5 221/2/5 222/2/5
f 224/1/5 223/1/5 222/1/5
f 225/3/5 209/3/5 223/3/5
f 225/1/5 223/1/5 224/1/5
f 226/2/5 225/2/5 224/2/5
f 227/3/5 209/3/5 225/3/5
f 227/2/5 225/2/5 226/2/5
f 228/1/5 227/1/5 226/1/5
f 229/3/5 209/3/5 227/3/5
f 229/1/5 227/1/5 228/1/5
f 230/3/5 229/3/5 228/3/5
f 231/3/5 209/3/5 229/3/5
f 231/3/5 229/3/5 230/3/5
f 232/2/5 231/2/5 230/2/5
f 233/3/5 209/3/5 231/3/5
f 233/2/5 231/2/5 232/2/5
f 234/3/5 233/3/5 232/3/5
f 235/3/5 209/3/5 233/3/5
f 235/3/5 233/3/5 234/3/5
f 236/2/6 237/2/6 238/2/6
f 238/2/6 237/2/6 239/2/6
f 238/3/6 239/3/6 240/3/6
f 240/3/6 239/3/6 241/3/6
f 242/2/6 243/2/6 244/2/6
f 244/2/6 243/2/6 245/2/6
f 244/1/6 245/1/6 246/1/6
f 246/1/6 245/1/6 247/1/6
f 246/3/6 247/3/6 248/3/6
f 248/3/6 247/3/6 249/3/6
f 248/1/6 249/1/6 250/1/6
f 248/1/6 250/1/6 251/1/6
f 251/1/6 250/1/6 252/1/6
f 253/2/6 254/2/6 255/2/6
f 255/2/6 254/2/6 256/2/6
f 255/1/6 256/1/6 257/1/6
f 257/1/6 256/1/6 258/1/6
f 257/2/6 258/2/6 259/2/6
f 259/2/6 258/2/6 260/2/6
f 259/1/6 260/1/6 261/1/6
f 259/1/6 261/1/6 262/1/6
f 262/1/6 261/1/6 263/1/6
f 262/3/6 263/3/6 264/3/6
f 262/3/6 264/3/6 265/3/6
f 265/3/6 264/3/6 266/3/6
f 265/2/6 266/2/6 267/2/6
f 265/2/6 267/2/6 268/2/6
f 268/2/6 267/2/6 269/2/6
f 268/3/6 269/3/6 270/3/6
f 268/3/6 270/3/6 271/3/6
f 268/3/6 271/3/6 272/3/6
f 272/3/6 271/3/6 273/3/6
f 275/3/6 276/3/6 277/3/6
f 274/2/6 275/2/6 278/2/6
f 275/3/6 277/3/6 278/3/6
f 278/3/6 277/3/6 279/3/6
f 274/2/6 278/2/6 281/2/6
f 280/4/6 281/4/6 282/4/6
f 281/2/6 278/2/6 283/2/6
f 282/4/6 281/4/6 283/4/6
f 278/1/6 279/1/6 284/1/6
f 283/2/6 278/2/6 284/2/6
f 284/1/6 279/1/6 285/1/6
f 283/4/6 284/4/6 286/4/6
f 284/4/6 285/4/6 286/4/6
f 286/4/6 285/4/6 287/4/6
f 283/4/6 286/4/6 288/4/6
f 288/4/6 286/4/6 289/4/6
f 288/2/6 289/2/6 290/2/6
f 290/2/6 289/2/6 291/2/6
f 290/1/6 291/1/6 292/1/6
f 290/1/6 292/1/6 294/1/6
f 292/1/6 293/1/6 294/1/6
f 294/1/6 293/1/6 295/1/6
f 290/1/6 294/1/6 296/1/6
f 294/2/6 295/2/6 297/2/6
f 296/1/6 294/1/6 297/1/6
f 297/2/6 295/2/6 298/2/6
f 297/4/6 298/4/6 299/4/6
f 296/3/6 297/3/6 301/3/6
f 297/4/6 299/4/6 302/4/6
f 301/3/6 297/3/6 302/3/6
f 302/4/6 299/4/6 303/4/6
f 300/4/6 301/4/6 304/4/6
f 304/4/6 301/4/6 305/4/6
f 302/2/6 303/2/6 306/2/6
f 306/2/6 303/2/6 307/2/6
f 308/1/6 309/1/6 310/1/6
f 308/1/6 310/1/6 312/1/6
f 310/3/6 311/3/6 312/3/6
f 312/3/6 311/3/6 313/3/6
f 308/1/6 312/1/6 314/1/6
f 314/1/6 312/1/6 315/1/6
f 314/3/6 315/3/6 316/3/6
f 314/3/6 316/3/6 318/3/6
f 316/3/6 317/3/6 318/3/6
f 318/3/6 317/3/6 319/3/6
f 319/3/6 317/3/6 320/3/6
f 318/2/6 319/2/6 321/2/6
f 319/3/6 320/3/6 321/3/6
f 321/3/6 320/3/6 322/3/6
f 318/2/6 321/2/6 323/2/6
f 321/2/6 322/2/6 323/2/6
f 323/2/6 322/2/6 324/2/6
f 323/3/6 324/3/6 325/3/6
f 324/2/6 322/2/6 326/2/6
f 325/3/6 324/3/6 326/3/6
f 325/2/6 326/2/6 327/2/6
f 326/2/6 322/2/6 327/2/6
f 327/2/6 322/2/6 328/2/6
f 325/2/6 327/2/6 329/2/6
f 327/1/6 328/1/6 330/1/6
f 329/2/6 327/2/6 330/2/6
f 329/1/6 330/1/6 331/1/6
f 330/1/6 328/1/6 331/1/6
f 331/1/6 328/1/6 332/1/6
f 329/1/6 331/1/6 333/1/6
f 331/3/6 332/3/6 334/3/6
f 333/1/6 331/1/6 334/1/6
f 334/3/6 332/3/6 335/3/6
f 334/3/6 335/3/6 338/3/6
f 336/3/6 337/3/6 338/3/6
f 335/3/6 336/3/6 338/3/6
f 333/3/6 334/3/6 338/3/6
f 338/3/6 337/3/6 339/3/6
f 340/4/6 341/4/6 342/4/6
f 342/4/6 341/4/6 343/4/6
f 342/1/6 343/1/6 344/1/6
f 343/4/6 341/4/6 345/4/6
f 344/1/6 343/1/6 345/1/6
f 344/3/6 345/3/6 347/3/6
f 346/4/6 347/4/6 348/4/6
f 347/3/6 345/3/6 349/3/6
f 348/4/6 347/4/6 349/4/6
f 345/4/6 341/4/6 350/4/6
f 349/3/6 345/3/6 350/3/6
f 349/1/6 350/1/6 351/1/6
f 350/4/6 341/4/6 352/4/6
f 351/1/6 350/1/6 352/1/6
f 351/3/6 352/3/6 353/3/6
f 352/4/6 341/4/6 354/4/6
f 353/3/6 352/3/6 354/3/6
f 353/2/6 354/2/6 355/2/6
f 354/4/6 341/4/6 356/4/6
f 355/2/6 354/2/6 356/2/6
f 355/4/6 356/4/6 359/4/6
f 356/4/6 341/4/6 360/4/6
f 359/4/6 356/4/6 360/4/6
f 357/4/6 358/4/6 361/4/6
f 359/3/6 360/3/6 362/3/6
f 357/4/6 361/4/6 363/4/6
f 361/4/6 362/4/6 363/4/6
f 363/4/6 362/4/6 364/4/6
f 364/4/6 362/4/6 365/4/6
f 362/3/6 360/3/6 366/3/6
f 365/4/6 362/4/6 366/4/6
f 360/4/6 341/4/6 367/4/6
f 366/3/6 360/3/6 367/3/6
f 366/4/6 367/4/6 369/4/6
f 369/4/6 367/4/6 370/4/6
f 368/4/6 369/4/6 370/4/6
f 367/4/6 341/4/6 371/4/6
f 370/4/6 367/4/6 371/4/6
f 368/4/6 370/4/6 372/4/6
f 370/1/6 371/1/6 373/1/6
f 372/4/6 370/4/6 373/4/6
f 371/4/6 341/4/6 374/4/6
f 373/1/6 371/1/6 374/1/6
f 373/3/6 374/3/6 375/3/6
f 374/4/6 341/4/6 376/4/6
f 375/3/6 374/3/6 376/3/6
f 375/1/6 376/1/6 377/1/6
f 376/4/6 341/4/6 378/4/6
f 377/1/6 376/1/6 378/1/6
f 377/2/6 378/2/6 379/2/6
f 378/4/6 341/4/6 380/4/6
f 379/2/6 378/2/6 380/2/6
f 380/4/6 341/4/6 381/4/6
