# MagicaVoxel @ Ephtracy

# group
g RiverBank_Left

# material
mtllib RiverBank_Left.mtl
usemtl palette

# normals
vn -1 0 0
vn 1 0 0
vn 0 0 1
vn 0 0 -1
vn 0 -1 0
vn 0 1 0

# texcoords
vt 0.857422 0.5
vt 0.861328 0.5
vt 0.865234 0.5
vt 0.892578 0.5

# verts
v -4 0 15.5
v -4 0 -15.5
v -4 2 15.5
v -4 2 -14.5
v -4 2 -15.5
v -4 3 15.5
v -4 3 -14.5
v 2 2 3.5
v 2 2 2.5
v 2 3 3.5
v 2 3 2.5
v 1 2 15.5
v 1 2 14.5
v 1 2 13.5
v 1 2 11.5
v 1 2 10.5
v 1 2 7.5
v 1 2 6.5
v 1 2 5.5
v 1 2 4.5
v 1 2 3.5
v 1 2 2.5
v 1 2 0.5
v 1 2 -2.5
v 1 2 -6.5
v 1 2 -7.5
v 1 2 -8.5
v 1 2 -11.5
v 1 2 -13.5
v 1 2 -14.5
v 1 3 15.5
v 1 3 14.5
v 1 3 11.5
v 1 3 10.5
v 1 3 7.5
v 1 3 6.5
v 1 3 5.5
v 1 3 4.5
v 1 3 3.5
v 1 3 2.5
v 1 3 0.5
v 1 3 -2.5
v 1 3 -6.5
v 1 3 -7.5
v 1 3 -11.5
v 1 3 -14.5
v 2 2 10.5
v 2 2 9.5
v 2 2 8.5
v 2 2 7.5
v 2 2 1.5
v 2 2 0.5
v 2 2 -2.5
v 2 2 -4.5
v 2 2 -6.5
v 2 3 10.5
v 2 3 7.5
v 2 3 1.5
v 2 3 0.5
v 2 3 -2.5
v 2 3 -6.5
v 3 1 15.5
v 3 1 13.5
v 3 1 12.5
v 3 1 11.5
v 3 1 9.5
v 3 1 8.5
v 3 1 6.5
v 3 1 5.5
v 3 1 3.5
v 3 1 2.5
v 3 1 1.5
v 3 1 0.5
v 3 1 -3.5
v 3 1 -4.5
v 3 1 -5.5
v 3 1 -7.5
v 3 1 -8.5
v 3 1 -9.5
v 3 1 -10.5
v 3 1 -12.5
v 3 1 -14.5
v 3 1 -15.5
v 3 2 15.5
v 3 2 12.5
v 3 2 11.5
v 3 2 9.5
v 3 2 8.5
v 3 2 5.5
v 3 2 3.5
v 3 2 2.5
v 3 2 1.5
v 3 2 -4.5
v 3 2 -7.5
v 3 2 -9.5
v 3 2 -10.5
v 3 2 -12.5
v 3 2 -14.5
v 3 2 -15.5
v 3 3 3.5
v 3 3 1.5
v 4 0 15.5
v 4 0 13.5
v 4 0 11.5
v 4 0 9.5
v 4 0 8.5
v 4 0 6.5
v 4 0 3.5
v 4 0 1.5
v 4 0 0.5
v 4 0 -3.5
v 4 0 -5.5
v 4 0 -8.5
v 4 0 -10.5
v 4 0 -15.5
v 4 1 15.5
v 4 1 13.5
v 4 1 12.5
v 4 1 11.5
v 4 1 9.5
v 4 1 8.5
v 4 1 6.5
v 4 1 3.5
v 4 1 2.5
v 4 1 1.5
v 4 1 0.5
v 4 1 -3.5
v 4 1 -5.5
v 4 1 -8.5
v 4 1 -10.5
v 4 1 -15.5
v 4 2 12.5
v 4 2 11.5
v 4 2 3.5
v 4 2 2.5
v -4 0 15.5
v -4 2 15.5
v -4 3 15.5
v 1 2 15.5
v 1 3 15.5
v 2 1 15.5
v 2 2 15.5
v 3 0 15.5
v 3 1 15.5
v 3 2 15.5
v 4 0 15.5
v 4 1 15.5
v 3 1 12.5
v 3 2 12.5
v 4 1 12.5
v 4 2 12.5
v 1 2 10.5
v 1 3 10.5
v 2 2 10.5
v 2 3 10.5
v 2 2 3.5
v 2 3 3.5
v 3 1 3.5
v 3 2 3.5
v 3 3 3.5
v 4 1 3.5
v 4 2 3.5
v 1 2 2.5
v 1 3 2.5
v 2 2 2.5
v 2 3 2.5
v 1 2 -2.5
v 1 3 -2.5
v 2 2 -2.5
v 2 3 -2.5
v 3 1 11.5
v 3 2 11.5
v 4 1 11.5
v 4 2 11.5
v 1 2 7.5
v 1 3 7.5
v 2 2 7.5
v 2 3 7.5
v 3 1 2.5
v 3 2 2.5
v 4 1 2.5
v 4 2 2.5
v 2 2 1.5
v 2 3 1.5
v 3 2 1.5
v 3 3 1.5
v 1 2 0.5
v 1 3 0.5
v 2 2 0.5
v 2 3 0.5
v 1 2 -6.5
v 1 3 -6.5
v 2 2 -6.5
v 2 3 -6.5
v -4 2 -14.5
v -4 3 -14.5
v 0 2 -14.5
v 0 3 -14.5
v 1 2 -14.5
v 1 3 -14.5
v -4 0 -15.5
v -4 2 -15.5
v 3 1 -15.5
v 3 2 -15.5
v 4 0 -15.5
v 4 1 -15.5
v -4 0 15.5
v 3 0 15.5
v 4 0 15.5
v 3 0 13.5
v 4 0 13.5
v 3 0 11.5
v 4 0 11.5
v 3 0 9.5
v 4 0 9.5
v 3 0 8.5
v 4 0 8.5
v 3 0 6.5
v 4 0 6.5
v 3 0 3.5
v 4 0 3.5
v 3 0 1.5
v 4 0 1.5
v 3 0 0.5
v 4 0 0.5
v 3 0 -3.5
v 4 0 -3.5
v 3 0 -5.5
v 4 0 -5.5
v 3 0 -8.5
v 4 0 -8.5
v 3 0 -10.5
v 4 0 -10.5
v -4 0 -15.5
v 4 0 -15.5
v 3 1 15.5
v 4 1 15.5
v 3 1 13.5
v 4 1 13.5
v 3 1 12.5
v 4 1 12.5
v 3 1 11.5
v 4 1 11.5
v 3 1 9.5
v 4 1 9.5
v 3 1 8.5
v 4 1 8.5
v 3 1 6.5
v 4 1 6.5
v 3 1 5.5
v 3 1 3.5
v 4 1 3.5
v 3 1 2.5
v 4 1 2.5
v 3 1 1.5
v 4 1 1.5
v 3 1 0.5
v 4 1 0.5
v 3 1 -3.5
v 4 1 -3.5
v 3 1 -4.5
v 3 1 -5.5
v 4 1 -5.5
v 3 1 -7.5
v 3 1 -8.5
v 4 1 -8.5
v 3 1 -9.5
v 3 1 -10.5
v 4 1 -10.5
v 3 1 -12.5
v 3 1 -14.5
v 3 1 -15.5
v 4 1 -15.5
v 1 2 15.5
v 2 2 15.5
v 3 2 15.5
v 1 2 14.5
v 1 2 13.5
v 2 2 13.5
v 3 2 12.5
v 4 2 12.5
v 1 2 11.5
v 2 2 11.5
v 3 2 11.5
v 4 2 11.5
v 1 2 10.5
v 2 2 10.5
v 2 2 9.5
v 3 2 9.5
v 2 2 8.5
v 3 2 8.5
v 1 2 7.5
v 2 2 7.5
v 1 2 6.5
v 2 2 6.5
v 1 2 5.5
v 2 2 5.5
v 3 2 5.5
v 1 2 4.5
v 1 2 3.5
v 2 2 3.5
v 3 2 3.5
v 4 2 3.5
v 1 2 2.5
v 2 2 2.5
v 3 2 2.5
v 4 2 2.5
v 2 2 1.5
v 3 2 1.5
v 1 2 0.5
v 2 2 0.5
v 1 2 -2.5
v 2 2 -2.5
v 2 2 -4.5
v 3 2 -4.5
v 1 2 -6.5
v 2 2 -6.5
v 1 2 -7.5
v 2 2 -7.5
v 3 2 -7.5
v 1 2 -8.5
v 2 2 -8.5
v 2 2 -9.5
v 3 2 -9.5
v 2 2 -10.5
v 3 2 -10.5
v 1 2 -11.5
v 2 2 -11.5
v 2 2 -12.5
v 3 2 -12.5
v 1 2 -13.5
v 2 2 -13.5
v -4 2 -14.5
v 0 2 -14.5
v 1 2 -14.5
v 2 2 -14.5
v 3 2 -14.5
v -4 2 -15.5
v 3 2 -15.5
v -4 3 15.5
v 1 3 15.5
v 0 3 14.5
v 1 3 14.5
v 0 3 11.5
v 1 3 11.5
v 1 3 10.5
v 2 3 10.5
v 0 3 7.5
v 1 3 7.5
v 2 3 7.5
v 0 3 6.5
v 1 3 6.5
v 0 3 5.5
v 1 3 5.5
v 0 3 4.5
v 1 3 4.5
v 0 3 3.5
v 1 3 3.5
v 2 3 3.5
v 3 3 3.5
v 1 3 2.5
v 2 3 2.5
v 2 3 1.5
v 3 3 1.5
v 0 3 0.5
v 1 3 0.5
v 2 3 0.5
v 1 3 -2.5
v 2 3 -2.5
v 0 3 -4.5
v 1 3 -4.5
v 0 3 -6.5
v 1 3 -6.5
v 2 3 -6.5
v 0 3 -7.5
v 1 3 -7.5
v 0 3 -11.5
v 1 3 -11.5
v -4 3 -14.5
v 0 3 -14.5
v 1 3 -14.5

# faces
f 3/3/1 2/3/1 1/3/1
f 4/3/1 2/3/1 3/3/1
f 5/3/1 2/3/1 4/3/1
f 6/4/1 4/4/1 3/4/1
f 7/4/1 4/4/1 6/4/1
f 10/4/1 9/4/1 8/4/1
f 11/4/1 9/4/1 10/4/1
f 12/4/2 13/4/2 31/4/2
f 13/1/2 14/1/2 32/1/2
f 31/4/2 13/4/2 32/4/2
f 14/1/2 15/1/2 32/1/2
f 15/3/2 16/3/2 33/3/2
f 32/1/2 15/1/2 33/1/2
f 33/3/2 16/3/2 34/3/2
f 17/1/2 18/1/2 35/1/2
f 18/3/2 19/3/2 36/3/2
f 35/1/2 18/1/2 36/1/2
f 19/2/2 20/2/2 37/2/2
f 36/3/2 19/3/2 37/3/2
f 20/4/2 21/4/2 38/4/2
f 37/2/2 20/2/2 38/2/2
f 21/3/2 22/3/2 39/3/2
f 38/4/2 21/4/2 39/4/2
f 39/3/2 22/3/2 40/3/2
f 23/4/2 24/4/2 41/4/2
f 41/4/2 24/4/2 42/4/2
f 25/3/2 26/3/2 43/3/2
f 26/1/2 27/1/2 44/1/2
f 43/3/2 26/3/2 44/3/2
f 27/1/2 28/1/2 44/1/2
f 29/2/2 30/2/2 45/2/2
f 44/1/2 28/1/2 45/1/2
f 28/2/2 29/2/2 45/2/2
f 45/2/2 30/2/2 46/2/2
f 47/4/2 48/4/2 56/4/2
f 48/4/2 49/4/2 56/4/2
f 49/4/2 50/4/2 56/4/2
f 56/4/2 50/4/2 57/4/2
f 51/4/2 52/4/2 58/4/2
f 58/4/2 52/4/2 59/4/2
f 54/4/2 55/4/2 60/4/2
f 53/4/2 54/4/2 60/4/2
f 60/4/2 55/4/2 61/4/2
f 62/2/2 63/2/2 84/2/2
f 63/2/2 64/2/2 84/2/2
f 84/2/2 64/2/2 85/2/2
f 65/4/2 66/4/2 86/4/2
f 66/2/2 67/2/2 87/2/2
f 86/4/2 66/4/2 87/4/2
f 67/1/2 68/1/2 88/1/2
f 87/2/2 67/2/2 88/2/2
f 68/1/2 69/1/2 88/1/2
f 69/3/2 70/3/2 89/3/2
f 88/1/2 69/1/2 89/1/2
f 89/3/2 70/3/2 90/3/2
f 71/1/2 72/1/2 91/1/2
f 72/1/2 73/1/2 91/1/2
f 73/1/2 74/1/2 91/1/2
f 74/1/2 75/1/2 91/1/2
f 91/1/2 75/1/2 92/1/2
f 75/3/2 76/3/2 93/3/2
f 92/1/2 75/1/2 93/1/2
f 76/3/2 77/3/2 93/3/2
f 77/2/2 78/2/2 94/2/2
f 93/3/2 77/3/2 94/3/2
f 78/2/2 79/2/2 94/2/2
f 79/3/2 80/3/2 95/3/2
f 94/2/2 79/2/2 95/2/2
f 80/2/2 81/2/2 96/2/2
f 95/3/2 80/3/2 96/3/2
f 81/1/2 82/1/2 97/1/2
f 96/2/2 81/2/2 97/2/2
f 82/3/2 83/3/2 98/3/2
f 97/1/2 82/1/2 98/1/2
f 98/3/2 83/3/2 99/3/2
f 90/4/2 91/4/2 100/4/2
f 91/4/2 92/4/2 100/4/2
f 100/4/2 92/4/2 101/4/2
f 102/2/2 103/2/2 116/2/2
f 103/3/2 104/3/2 117/3/2
f 116/2/2 103/2/2 117/2/2
f 117/3/2 104/3/2 118/3/2
f 104/2/2 105/2/2 119/2/2
f 118/3/2 104/3/2 119/3/2
f 105/1/2 106/1/2 120/1/2
f 119/2/2 105/2/2 120/2/2
f 106/3/2 107/3/2 121/3/2
f 120/1/2 106/1/2 121/1/2
f 107/1/2 108/1/2 122/1/2
f 121/3/2 107/3/2 122/3/2
f 108/2/2 109/2/2 123/2/2
f 122/1/2 108/1/2 123/1/2
f 123/2/2 109/2/2 124/2/2
f 109/1/2 110/1/2 125/1/2
f 124/2/2 109/2/2 125/2/2
f 110/2/2 111/2/2 126/2/2
f 125/1/2 110/1/2 126/1/2
f 111/1/2 112/1/2 127/1/2
f 126/2/2 111/2/2 127/2/2
f 112/3/2 113/3/2 128/3/2
f 127/1/2 112/1/2 128/1/2
f 113/2/2 114/2/2 129/2/2
f 128/3/2 113/3/2 129/3/2
f 114/3/2 115/3/2 130/3/2
f 129/2/2 114/2/2 130/2/2
f 130/3/2 115/3/2 131/3/2
f 118/4/2 119/4/2 132/4/2
f 132/4/2 119/4/2 133/4/2
f 123/4/2 124/4/2 134/4/2
f 134/4/2 124/4/2 135/4/2
f 139/3/3 137/3/3 136/3/3
f 139/4/3 138/4/3 137/4/3
f 140/4/3 138/4/3 139/4/3
f 141/3/3 139/3/3 136/3/3
f 142/3/3 139/3/3 141/3/3
f 143/3/3 141/3/3 136/3/3
f 144/2/3 142/2/3 141/2/3
f 144/3/3 141/3/3 143/3/3
f 145/2/3 142/2/3 144/2/3
f 146/2/3 144/2/3 143/2/3
f 147/2/3 144/2/3 146/2/3
f 150/4/3 149/4/3 148/4/3
f 151/4/3 149/4/3 150/4/3
f 154/4/3 153/4/3 152/4/3
f 155/4/3 153/4/3 154/4/3
f 159/4/3 157/4/3 156/4/3
f 160/4/3 157/4/3 159/4/3
f 161/4/3 159/4/3 158/4/3
f 162/4/3 159/4/3 161/4/3
f 165/4/3 164/4/3 163/4/3
f 166/4/3 164/4/3 165/4/3
f 169/4/3 168/4/3 167/4/3
f 170/4/3 168/4/3 169/4/3
f 171/4/4 172/4/4 173/4/4
f 173/4/4 172/4/4 174/4/4
f 175/4/4 176/4/4 177/4/4
f 177/4/4 176/4/4 178/4/4
f 179/4/4 180/4/4 181/4/4
f 181/4/4 180/4/4 182/4/4
f 183/4/4 184/4/4 185/4/4
f 185/4/4 184/4/4 186/4/4
f 187/4/4 188/4/4 189/4/4
f 189/4/4 188/4/4 190/4/4
f 191/4/4 192/4/4 193/4/4
f 193/4/4 192/4/4 194/4/4
f 195/4/4 196/4/4 197/4/4
f 197/4/4 196/4/4 198/4/4
f 197/2/4 198/2/4 199/2/4
f 199/2/4 198/2/4 200/2/4
f 201/3/4 202/3/4 203/3/4
f 203/3/4 202/3/4 204/3/4
f 201/3/4 203/3/4 205/3/4
f 205/3/4 203/3/4 206/3/4
f 210/3/5 208/3/5 207/3/5
f 210/2/5 209/2/5 208/2/5
f 211/2/5 209/2/5 210/2/5
f 212/3/5 210/3/5 207/3/5
f 212/3/5 211/3/5 210/3/5
f 213/3/5 211/3/5 212/3/5
f 214/3/5 212/3/5 207/3/5
f 214/2/5 213/2/5 212/2/5
f 215/2/5 213/2/5 214/2/5
f 216/3/5 214/3/5 207/3/5
f 216/1/5 215/1/5 214/1/5
f 217/1/5 215/1/5 216/1/5
f 218/3/5 216/3/5 207/3/5
f 218/3/5 217/3/5 216/3/5
f 219/3/5 217/3/5 218/3/5
f 220/3/5 218/3/5 207/3/5
f 220/1/5 219/1/5 218/1/5
f 221/1/5 219/1/5 220/1/5
f 222/3/5 220/3/5 207/3/5
f 222/2/5 221/2/5 220/2/5
f 223/2/5 221/2/5 222/2/5
f 224/3/5 222/3/5 207/3/5
f 224/1/5 223/1/5 222/1/5
f 225/1/5 223/1/5 224/1/5
f 226/3/5 224/3/5 207/3/5
f 226/2/5 225/2/5 224/2/5
f 227/2/5 225/2/5 226/2/5
f 228/3/5 226/3/5 207/3/5
f 228/1/5 227/1/5 226/1/5
f 229/1/5 227/1/5 228/1/5
f 230/3/5 228/3/5 207/3/5
f 230/3/5 229/3/5 228/3/5
f 231/3/5 229/3/5 230/3/5
f 232/3/5 230/3/5 207/3/5
f 232/2/5 231/2/5 230/2/5
f 233/2/5 231/2/5 232/2/5
f 234/3/5 232/3/5 207/3/5
f 234/3/5 233/3/5 232/3/5
f 235/3/5 233/3/5 234/3/5
f 236/2/6 237/2/6 238/2/6
f 238/2/6 237/2/6 239/2/6
f 238/3/6 239/3/6 240/3/6
f 240/3/6 239/3/6 241/3/6
f 242/2/6 243/2/6 244/2/6
f 244/2/6 243/2/6 245/2/6
f 244/1/6 245/1/6 246/1/6
f 246/1/6 245/1/6 247/1/6
f 246/3/6 247/3/6 248/3/6
f 248/3/6 247/3/6 249/3/6
f 248/1/6 249/1/6 250/1/6
f 250/1/6 249/1/6 251/1/6
f 251/1/6 249/1/6 252/1/6
f 253/2/6 254/2/6 255/2/6
f 255/2/6 254/2/6 256/2/6
f 255/1/6 256/1/6 257/1/6
f 257/1/6 256/1/6 258/1/6
f 257/2/6 258/2/6 259/2/6
f 259/2/6 258/2/6 260/2/6
f 259/1/6 260/1/6 261/1/6
f 261/1/6 260/1/6 262/1/6
f 262/1/6 260/1/6 263/1/6
f 262/3/6 263/3/6 264/3/6
f 264/3/6 263/3/6 265/3/6
f 265/3/6 263/3/6 266/3/6
f 265/2/6 266/2/6 267/2/6
f 267/2/6 266/2/6 268/2/6
f 268/2/6 266/2/6 269/2/6
f 268/3/6 269/3/6 270/3/6
f 270/3/6 269/3/6 271/3/6
f 271/3/6 269/3/6 272/3/6
f 272/3/6 269/3/6 273/3/6
f 274/3/6 275/3/6 277/3/6
f 277/3/6 275/3/6 278/3/6
f 275/2/6 276/2/6 279/2/6
f 278/3/6 275/3/6 279/3/6
f 279/2/6 276/2/6 280/2/6
f 278/1/6 279/1/6 282/1/6
f 279/2/6 280/2/6 283/2/6
f 282/1/6 279/1/6 283/1/6
f 280/4/6 281/4/6 284/4/6
f 283/2/6 280/2/6 284/2/6
f 284/4/6 281/4/6 285/4/6
f 282/4/6 283/4/6 286/4/6
f 283/4/6 284/4/6 286/4/6
f 286/4/6 284/4/6 287/4/6
f 287/4/6 284/4/6 288/4/6
f 288/4/6 284/4/6 289/4/6
f 288/2/6 289/2/6 290/2/6
f 290/2/6 289/2/6 291/2/6
f 290/1/6 291/1/6 293/1/6
f 292/1/6 293/1/6 294/1/6
f 293/1/6 291/1/6 295/1/6
f 294/1/6 293/1/6 295/1/6
f 294/2/6 295/2/6 296/2/6
f 295/1/6 291/1/6 297/1/6
f 296/2/6 295/2/6 297/2/6
f 297/1/6 291/1/6 298/1/6
f 296/4/6 297/4/6 299/4/6
f 299/4/6 297/4/6 300/4/6
f 297/3/6 298/3/6 301/3/6
f 300/4/6 297/4/6 301/4/6
f 301/3/6 298/3/6 302/3/6
f 300/2/6 301/2/6 304/2/6
f 304/2/6 301/2/6 305/2/6
f 302/4/6 303/4/6 306/4/6
f 306/4/6 303/4/6 307/4/6
f 308/1/6 309/1/6 311/1/6
f 310/3/6 311/3/6 312/3/6
f 311/1/6 309/1/6 313/1/6
f 312/3/6 311/3/6 313/3/6
f 313/1/6 309/1/6 314/1/6
f 314/1/6 309/1/6 315/1/6
f 314/3/6 315/3/6 317/3/6
f 316/3/6 317/3/6 318/3/6
f 317/3/6 315/3/6 319/3/6
f 318/3/6 317/3/6 319/3/6
f 319/3/6 315/3/6 320/3/6
f 318/3/6 319/3/6 321/3/6
f 319/2/6 320/2/6 322/2/6
f 321/3/6 319/3/6 322/3/6
f 321/2/6 322/2/6 323/2/6
f 322/2/6 320/2/6 323/2/6
f 323/2/6 320/2/6 324/2/6
f 321/2/6 323/2/6 325/2/6
f 323/3/6 324/3/6 325/3/6
f 325/3/6 324/3/6 326/3/6
f 321/2/6 325/2/6 327/2/6
f 325/2/6 326/2/6 327/2/6
f 327/2/6 326/2/6 328/2/6
f 327/1/6 328/1/6 329/1/6
f 328/2/6 326/2/6 329/2/6
f 329/2/6 326/2/6 330/2/6
f 327/1/6 329/1/6 331/1/6
f 329/1/6 330/1/6 331/1/6
f 331/1/6 330/1/6 332/1/6
f 331/3/6 332/3/6 335/3/6
f 332/1/6 330/1/6 336/1/6
f 335/3/6 332/3/6 336/3/6
f 336/1/6 330/1/6 337/1/6
f 333/3/6 334/3/6 338/3/6
f 334/3/6 335/3/6 338/3/6
f 336/3/6 337/3/6 338/3/6
f 335/3/6 336/3/6 338/3/6
f 338/3/6 337/3/6 339/3/6
f 340/4/6 341/4/6 342/4/6
f 342/4/6 341/4/6 343/4/6
f 340/4/6 342/4/6 344/4/6
f 342/1/6 343/1/6 344/1/6
f 344/1/6 343/1/6 345/1/6
f 344/3/6 345/3/6 346/3/6
f 344/3/6 346/3/6 348/3/6
f 340/4/6 344/4/6 348/4/6
f 346/4/6 347/4/6 349/4/6
f 348/3/6 346/3/6 349/3/6
f 349/4/6 347/4/6 350/4/6
f 340/4/6 348/4/6 351/4/6
f 348/1/6 349/1/6 351/1/6
f 351/1/6 349/1/6 352/1/6
f 340/4/6 351/4/6 353/4/6
f 351/3/6 352/3/6 353/3/6
f 353/3/6 352/3/6 354/3/6
f 340/4/6 353/4/6 355/4/6
f 353/2/6 354/2/6 355/2/6
f 355/2/6 354/2/6 356/2/6
f 340/4/6 355/4/6 357/4/6
f 355/4/6 356/4/6 357/4/6
f 357/4/6 356/4/6 358/4/6
f 357/3/6 358/3/6 361/3/6
f 359/4/6 360/4/6 362/4/6
f 362/4/6 360/4/6 363/4/6
f 361/4/6 362/4/6 363/4/6
f 363/4/6 360/4/6 364/4/6
f 340/4/6 357/4/6 365/4/6
f 357/3/6 361/3/6 365/3/6
f 361/4/6 363/4/6 366/4/6
f 365/3/6 361/3/6 366/3/6
f 366/4/6 363/4/6 367/4/6
f 365/4/6 366/4/6 368/4/6
f 340/4/6 365/4/6 370/4/6
f 368/4/6 369/4/6 370/4/6
f 365/4/6 368/4/6 370/4/6
f 370/4/6 369/4/6 371/4/6
f 340/4/6 370/4/6 372/4/6
f 370/1/6 371/1/6 372/1/6
f 371/4/6 369/4/6 373/4/6
f 372/1/6 371/1/6 373/1/6
f 373/4/6 369/4/6 374/4/6
f 340/4/6 372/4/6 375/4/6
f 372/3/6 373/3/6 375/3/6
f 375/3/6 373/3/6 376/3/6
f 340/4/6 375/4/6 377/4/6
f 375/1/6 376/1/6 377/1/6
f 377/1/6 376/1/6 378/1/6
f 340/4/6 377/4/6 379/4/6
f 377/2/6 378/2/6 380/2/6
f 379/4/6 377/4/6 380/4/6
f 380/2/6 378/2/6 381/2/6
